<?xml version="1.0" encoding="UTF-8" standalone="no"?>
<!-- Generator: Gravit.io -->

<svg
   style="isolation:isolate"
   viewBox="687.662 428.933 110.677 111.134"
   width="110.677pt"
   height="111.134pt"
   version="1.1"
   id="svg1044"
   sodipodi:docname="icone_glace_version2.svg"
   inkscape:version="1.1 (c68e22c387, 2021-05-23)"
   xmlns:inkscape="http://www.inkscape.org/namespaces/inkscape"
   xmlns:sodipodi="http://sodipodi.sourceforge.net/DTD/sodipodi-0.dtd"
   xmlns="http://www.w3.org/2000/svg"
   xmlns:svg="http://www.w3.org/2000/svg">
  <sodipodi:namedview
     id="namedview1046"
     pagecolor="#ffffff"
     bordercolor="#666666"
     borderopacity="1.0"
     inkscape:pageshadow="2"
     inkscape:pageopacity="0.0"
     inkscape:pagecheckerboard="0"
     inkscape:document-units="pt"
     showgrid="false"
     inkscape:zoom="3.509277"
     inkscape:cx="51.007658"
     inkscape:cy="70.527348"
     inkscape:window-width="1366"
     inkscape:window-height="705"
     inkscape:window-x="-8"
     inkscape:window-y="-8"
     inkscape:window-maximized="1"
     inkscape:current-layer="g1040" />
  <defs
     id="defs1024">
    <clipPath
       id="_clipPath_0RTfXVxQohgbBlDjdgTLzCUK0K9oDZa1">
      <rect
         x="687.662"
         y="428.933"
         width="110.677"
         height="111.134"
         id="rect1021" />
    </clipPath>
  </defs>
  <g
     clip-path="url(#_clipPath_0RTfXVxQohgbBlDjdgTLzCUK0K9oDZa1)"
     id="g1042">
    <g
       id="g1040"
       style="fill:#008080"
       transform="translate(-1.5)">
      <path
         d="m 739.191,429.281 c -5.632,1.057 -10.97,4.525 -14.143,9.223 -1.057,1.55 -3.074,5.608 -2.902,5.805 0.074,0.049 1.205,0.369 2.558,0.713 2.878,0.714 7.551,2.976 9.937,4.772 2.263,1.697 5.436,5.067 6.911,7.33 0.689,1.057 1.329,1.918 1.452,1.918 0.123,0 0.762,-0.861 1.451,-1.894 1.574,-2.435 4.525,-5.534 7.01,-7.379 2.632,-1.967 6.813,-3.984 9.838,-4.747 1.353,-0.344 2.509,-0.664 2.558,-0.738 0.295,-0.27 -2.533,-5.362 -3.96,-7.133 -5.017,-6.247 -13.11,-9.297 -20.71,-7.87 z"
         fill="rgb(0,0,0)"
         id="path1026"
         style="fill:#feaae5;fill-opacity:1"
         inkscape:export-filename="C:\Users\Noah\Desktop\SAE1.05\charte graphique\logo\version2.png"
         inkscape:export-xdpi="96"
         inkscape:export-ydpi="96" />
      <path
         d="m 785.654,429.354 c -1.205,0.64 -14.365,14.168 -14.143,14.512 0.098,0.172 1.18,0.468 2.386,0.664 1.229,0.197 2.951,0.591 3.886,0.861 l 1.648,0.517 5.337,-5.461 c 2.927,-3 5.534,-5.78 5.756,-6.223 1.648,-3 -1.869,-6.518 -4.87,-4.87 z"
         fill="rgb(0,0,0)"
         id="path1028"
         style="fill:#df9a57;fill-opacity:1"
         inkscape:export-filename="C:\Users\Noah\Desktop\SAE1.05\charte graphique\logo\version2.png"
         inkscape:export-xdpi="96"
         inkscape:export-ydpi="96" />
      <path
         d="m 713.143,451.663 c -3.738,0.787 -7.009,2.288 -9.912,4.6 -4.476,3.566 -7.6,9.494 -8.117,15.373 l -0.147,1.795 h 22.21 22.211 l -0.172,-1.845 c -0.861,-9.395 -7.428,-17.168 -16.505,-19.578 -2.558,-0.664 -7.182,-0.837 -9.568,-0.345 z"
         fill="rgb(0,0,0)"
         id="path1030"
         style="fill:#9d85ff;fill-opacity:1"
         inkscape:export-filename="C:\Users\Noah\Desktop\SAE1.05\charte graphique\logo\version2.png"
         inkscape:export-xdpi="96"
         inkscape:export-ydpi="96" />
      <path
         d="m 764.796,451.663 c -3.739,0.787 -7.01,2.288 -9.912,4.6 -4.477,3.566 -7.601,9.494 -8.117,15.373 l -0.148,1.795 h 2.361 c 4.305,0 6.74,0.886 9.175,3.296 1.599,1.623 2.583,3.394 3.025,5.51 0.172,0.811 0.271,4.427 0.271,9.543 0,7.773 0.024,8.289 0.492,9.199 0.566,1.107 1.968,1.968 3.197,1.968 1.23,0 2.632,-0.861 3.198,-1.968 0.467,-0.91 0.492,-1.426 0.492,-9.199 0,-5.116 0.098,-8.732 0.27,-9.543 0.886,-4.206 4.305,-7.625 8.535,-8.535 0.763,-0.148 3.764,-0.271 7.355,-0.271 h 6.05 l -0.172,-1.845 c -0.861,-9.395 -7.428,-17.168 -16.504,-19.578 -2.558,-0.664 -7.182,-0.837 -9.568,-0.345 z"
         fill="rgb(0,0,0)"
         id="path1032"
         style="fill:#f27999;fill-opacity:1"
         inkscape:export-filename="C:\Users\Noah\Desktop\SAE1.05\charte graphique\logo\version2.png"
         inkscape:export-xdpi="96"
         inkscape:export-ydpi="96" />
      <path
         d="m 692.704,481.253 c -1.599,0.541 -2.681,1.328 -3.591,2.582 -1.082,1.476 -1.451,3.075 -1.451,6.125 0,3.222 0.418,4.329 1.967,5.116 0.96,0.492 1.378,0.492 32.714,0.492 h 31.729 v -5.903 c 0,-5.461 -0.049,-6.002 -0.492,-6.887 -0.32,-0.64 -0.836,-1.156 -1.476,-1.476 -0.959,-0.492 -1.377,-0.492 -29.565,-0.492 -26.515,0.025 -28.704,0.049 -29.835,0.443 z"
         fill="rgb(0,0,0)"
         id="path1034"
         style="fill:#ffe6d5;fill-opacity:1"
         inkscape:export-filename="C:\Users\Noah\Desktop\SAE1.05\charte graphique\logo\version2.png"
         inkscape:export-xdpi="96"
         inkscape:export-ydpi="96" />
      <path
         d="m 778.127,481.302 c -0.565,0.295 -1.131,0.885 -1.426,1.476 -0.443,0.885 -0.492,1.426 -0.492,6.887 v 5.903 h 9.592 c 9.15,0 9.667,-0.025 10.577,-0.492 0.639,-0.32 1.156,-0.836 1.5,-1.525 0.468,-0.91 0.517,-1.328 0.418,-4.108 -0.073,-2.804 -0.147,-3.246 -0.762,-4.501 -0.787,-1.574 -1.968,-2.73 -3.591,-3.492 -1.058,-0.492 -1.599,-0.517 -8.019,-0.566 -6.493,-0.074 -6.936,-0.049 -7.797,0.418 z"
         fill="rgb(0,0,0)"
         id="path1036"
         style="fill:#ffe6d5;fill-opacity:1"
         inkscape:export-filename="C:\Users\Noah\Desktop\SAE1.05\charte graphique\logo\version2.png"
         inkscape:export-xdpi="96"
         inkscape:export-ydpi="96" />
      <path
         d="m 696.516,503.316 c 0,0.688 1.771,5.878 2.829,8.24 2.828,6.395 8.166,13.355 13.626,17.758 14.488,11.708 33.845,14.045 50.423,6.076 5.436,-2.608 9.789,-5.781 14.069,-10.257 5.215,-5.461 8.83,-11.511 11.142,-18.669 0.492,-1.525 0.886,-2.927 0.886,-3.148 0,-0.32 -0.91,-0.369 -6.961,-0.369 h -6.985 l -0.591,1.279 c -1.598,3.443 -5.878,6.1 -9.814,6.1 -3.935,0 -8.215,-2.657 -9.814,-6.1 l -0.59,-1.279 h -29.122 c -25.851,0 -29.098,0.049 -29.098,0.369 z"
         fill="rgb(0,0,0)"
         id="path1038"
         style="fill:#df9a57;fill-opacity:1"
         inkscape:export-filename="C:\Users\Noah\Desktop\SAE1.05\charte graphique\logo\version2.png"
         inkscape:export-xdpi="96"
         inkscape:export-ydpi="96" />
    </g>
  </g>
</svg>
